# xmcd
#
# Track frame offsets: 
#        150
#        16832
#        32952
#        52125
#        70167
#        89950
#        109677
#        128825
#        145157
#        164265
#
# Disc length: 2466 seconds
#
# Revision: 7
# Processed by: cddbd v1.4PL0 Copyright (c) Steve Scherf et al.
# Submitted via: ExactAudioCopy v0.90b4
#
DISCID=8e09a00a
DTITLE=Ann-Louise - Stick Around
DYEAR=1998
DGENRE=Pop
TTITLE0=Remember Me
TTITLE1=Stick Around
TTITLE2=Can You Hear (The Songs Of Yesterday)
TTITLE3=I'm Gonna Show You...
TTITLE4=Run Baby, Run (Halfway To The Sun)
TTITLE5=(Baby) It's All Right
TTITLE6=Isn't It Love
TTITLE7=Unchanged
TTITLE8=Why Would I Want You
TTITLE9=I Care For You
EXTD=
EXTT0=
EXTT1=
EXTT2=
EXTT3=
EXTT4=
EXTT5=
EXTT6=
EXTT7=
EXTT8=
EXTT9=
PLAYORDER=
